<?xml version="1.0" encoding="UTF-8"?>
<svg xmlns="http://www.w3.org/2000/svg" xmlns:xlink="http://www.w3.org/1999/xlink" width="1080" height="1920" viewBox="0 0 1080 1920">
<defs>
<g>
<g id="glyph-0-0">
<path d="M 3.011719 -5.058594 L 1.375 -2.496094 L 3.011719 -2.496094 Z M 2.898438 -6.480469 L 4.242188 -6.480469 L 4.242188 -2.496094 L 4.953125 -2.496094 L 4.953125 -1.398438 L 4.242188 -1.398438 L 4.242188 0 L 3.011719 0 L 3.011719 -1.398438 L 0.441406 -1.398438 L 0.441406 -2.640625 Z "/>
</g>
<g id="glyph-0-1">
<path d="M 2.382812 -2.898438 L 1.695312 -2.898438 L 1.695312 -4.027344 L 2.382812 -4.027344 C 2.703125 -4.027344 2.949219 -4.089844 3.125 -4.21875 C 3.296875 -4.34375 3.386719 -4.519531 3.386719 -4.75 C 3.386719 -4.988281 3.296875 -5.175781 3.125 -5.3125 C 2.949219 -5.445312 2.703125 -5.511719 2.382812 -5.511719 C 2.140625 -5.511719 1.878906 -5.480469 1.601562 -5.421875 C 1.324219 -5.359375 1.035156 -5.273438 0.738281 -5.15625 L 0.738281 -6.320312 C 1.035156 -6.410156 1.328125 -6.476562 1.617188 -6.527344 C 1.90625 -6.574219 2.1875 -6.597656 2.453125 -6.597656 C 3.136719 -6.597656 3.667969 -6.449219 4.050781 -6.152344 C 4.433594 -5.851562 4.621094 -5.441406 4.621094 -4.917969 C 4.621094 -4.53125 4.511719 -4.21875 4.292969 -3.972656 C 4.074219 -3.730469 3.757812 -3.570312 3.351562 -3.496094 C 3.8125 -3.414062 4.167969 -3.230469 4.410156 -2.941406 C 4.652344 -2.652344 4.773438 -2.273438 4.773438 -1.804688 C 4.773438 -1.175781 4.574219 -0.699219 4.171875 -0.367188 C 3.769531 -0.0390625 3.183594 0.125 2.417969 0.125 C 2.089844 0.125 1.769531 0.0976562 1.453125 0.0429688 C 1.136719 -0.0117188 0.832031 -0.0898438 0.542969 -0.195312 L 0.542969 -1.382812 C 0.816406 -1.246094 1.109375 -1.144531 1.421875 -1.074219 C 1.738281 -1.003906 2.070312 -0.96875 2.417969 -0.96875 C 2.765625 -0.96875 3.039062 -1.046875 3.242188 -1.207031 C 3.445312 -1.367188 3.546875 -1.585938 3.546875 -1.859375 C 3.546875 -2.191406 3.445312 -2.449219 3.242188 -2.628906 C 3.039062 -2.808594 2.753906 -2.898438 2.382812 -2.898438 Z "/>
</g>
</g>
</defs>
<g fill="rgb(100%, 84.313725%, 0%)" fill-opacity="1">
<use xlink:href="#glyph-0-0" x="30" y="28.251953"/>
<use xlink:href="#glyph-0-0" x="35" y="28.251953"/>
<use xlink:href="#glyph-0-1" x="40" y="28.251953"/>
</g>
</svg>
