<?xml version="1.0" encoding="UTF-8"?>
<svg xmlns="http://www.w3.org/2000/svg" xmlns:xlink="http://www.w3.org/1999/xlink" width="1080" height="1920" viewBox="0 0 1080 1920">
<defs>
<g>
<g id="glyph-0-0">
<path d="M 0.941406 -7.289062 L 4.902344 -7.289062 L 4.902344 -6.019531 L 2.109375 -6.019531 L 2.109375 -4.667969 C 2.226562 -4.714844 2.351562 -4.746094 2.484375 -4.769531 C 2.617188 -4.789062 2.761719 -4.800781 2.910156 -4.800781 C 3.632812 -4.800781 4.21875 -4.570312 4.667969 -4.117188 C 5.117188 -3.660156 5.34375 -3.066406 5.34375 -2.339844 C 5.34375 -1.574219 5.097656 -0.96875 4.613281 -0.523438 C 4.125 -0.078125 3.460938 0.140625 2.621094 0.140625 C 2.308594 0.140625 1.992188 0.117188 1.675781 0.0625 C 1.355469 0.0117188 1.03125 -0.0664062 0.699219 -0.171875 L 0.699219 -1.46875 C 0.96875 -1.335938 1.246094 -1.234375 1.53125 -1.167969 C 1.816406 -1.101562 2.101562 -1.070312 2.386719 -1.070312 C 2.894531 -1.070312 3.28125 -1.175781 3.546875 -1.394531 C 3.808594 -1.609375 3.941406 -1.925781 3.941406 -2.339844 C 3.941406 -2.71875 3.808594 -3.023438 3.546875 -3.253906 C 3.285156 -3.484375 2.9375 -3.597656 2.5 -3.597656 C 2.242188 -3.597656 1.984375 -3.566406 1.726562 -3.503906 C 1.46875 -3.441406 1.207031 -3.34375 0.941406 -3.21875 Z "/>
</g>
</g>
</defs>
<g fill="rgb(5.098039%, 10.588235%, 7.058824%)" fill-opacity="1">
<use xlink:href="#glyph-0-0" x="30" y="29.282227"/>
</g>
</svg>
