<?xml version="1.0" encoding="UTF-8"?>
<svg xmlns="http://www.w3.org/2000/svg" xmlns:xlink="http://www.w3.org/1999/xlink" width="1080" height="1920" viewBox="0 0 1080 1920">
<defs>
<g>
<g id="glyph-0-0">
<path d="M 2.601562 -7.09375 L 2.601562 -4.597656 L 3.292969 -4.597656 C 3.84375 -4.597656 4.230469 -4.691406 4.453125 -4.875 C 4.675781 -5.0625 4.785156 -5.386719 4.785156 -5.84375 C 4.785156 -6.304688 4.675781 -6.628906 4.453125 -6.8125 C 4.230469 -7 3.84375 -7.09375 3.292969 -7.09375 Z M 0.921875 -8.503906 L 3.230469 -8.503906 C 4.402344 -8.503906 5.246094 -8.296875 5.761719 -7.878906 C 6.277344 -7.460938 6.535156 -6.78125 6.535156 -5.84375 C 6.535156 -4.90625 6.277344 -4.230469 5.761719 -3.8125 C 5.246094 -3.394531 4.402344 -3.183594 3.230469 -3.183594 L 2.601562 -3.183594 L 2.601562 0 L 0.921875 0 Z "/>
</g>
<g id="glyph-0-1">
<path d="M 1.28125 0 L 1.28125 -8.503906 L 2.960938 -8.503906 L 2.960938 -1.480469 L 6.558594 -1.480469 L 6.558594 0 Z "/>
</g>
<g id="glyph-0-2">
<path d="M 3.507812 -6.96875 L 2.71875 -3.488281 L 4.308594 -3.488281 Z M 2.484375 -8.503906 L 4.539062 -8.503906 L 6.835938 0 L 5.15625 0 L 4.632812 -2.101562 L 2.382812 -2.101562 L 1.867188 0 L 0.1875 0 Z "/>
</g>
<g id="glyph-0-3">
<path d="M 0.046875 -8.503906 L 1.855469 -8.503906 L 3.507812 -5.085938 L 5.167969 -8.503906 L 6.980469 -8.503906 L 4.351562 -3.351562 L 4.351562 0 L 2.671875 0 L 2.671875 -3.351562 Z "/>
</g>
</g>
</defs>
<g fill="rgb(5.098039%, 10.588235%, 7.058824%)" fill-opacity="1">
<use xlink:href="#glyph-0-0" x="30" y="30.829102"/>
<use xlink:href="#glyph-0-1" x="37" y="30.829102"/>
<use xlink:href="#glyph-0-2" x="44" y="30.829102"/>
<use xlink:href="#glyph-0-3" x="51" y="30.829102"/>
</g>
</svg>
