<?xml version="1.0" encoding="UTF-8"?>
<svg xmlns="http://www.w3.org/2000/svg" xmlns:xlink="http://www.w3.org/1999/xlink" width="1080" height="1920" viewBox="0 0 1080 1920">
<defs>
<g>
<g id="glyph-0-0">
<path d="M 2.792969 -3.246094 C 2.515625 -3.246094 2.300781 -3.144531 2.15625 -2.945312 C 2.007812 -2.742188 1.9375 -2.453125 1.9375 -2.070312 C 1.9375 -1.691406 2.007812 -1.402344 2.15625 -1.199219 C 2.300781 -1 2.511719 -0.898438 2.792969 -0.898438 C 3.070312 -0.898438 3.28125 -1 3.429688 -1.199219 C 3.578125 -1.402344 3.65625 -1.691406 3.65625 -2.070312 C 3.65625 -2.449219 3.582031 -2.742188 3.429688 -2.941406 C 3.28125 -3.144531 3.070312 -3.246094 2.792969 -3.246094 Z M 4.472656 -6.328125 L 4.472656 -5.164062 C 4.242188 -5.296875 4.023438 -5.394531 3.8125 -5.457031 C 3.601562 -5.523438 3.402344 -5.554688 3.207031 -5.554688 C 2.746094 -5.554688 2.390625 -5.402344 2.152344 -5.089844 C 1.910156 -4.777344 1.78125 -4.320312 1.769531 -3.710938 C 1.90625 -3.898438 2.082031 -4.039062 2.292969 -4.132812 C 2.503906 -4.226562 2.753906 -4.277344 3.039062 -4.277344 C 3.625 -4.277344 4.074219 -4.089844 4.394531 -3.722656 C 4.710938 -3.351562 4.871094 -2.832031 4.871094 -2.152344 C 4.871094 -1.425781 4.691406 -0.863281 4.335938 -0.464844 C 3.976562 -0.0664062 3.472656 0.132812 2.824219 0.132812 C 2.035156 0.132812 1.460938 -0.128906 1.105469 -0.660156 C 0.746094 -1.191406 0.570312 -2.042969 0.570312 -3.226562 C 0.570312 -4.347656 0.785156 -5.1875 1.222656 -5.75 C 1.660156 -6.308594 2.316406 -6.589844 3.191406 -6.589844 C 3.394531 -6.589844 3.601562 -6.566406 3.816406 -6.523438 C 4.03125 -6.480469 4.25 -6.414062 4.472656 -6.328125 Z "/>
</g>
<g id="glyph-0-1">
<path d="M 1.882812 -1.128906 L 4.613281 -1.128906 L 4.613281 0 L 0.5 0 L 0.5 -1.09375 L 1.195312 -1.832031 C 2.019531 -2.707031 2.519531 -3.25 2.695312 -3.449219 C 2.914062 -3.699219 3.070312 -3.921875 3.164062 -4.113281 C 3.257812 -4.304688 3.308594 -4.496094 3.308594 -4.683594 C 3.308594 -4.972656 3.21875 -5.195312 3.046875 -5.355469 C 2.871094 -5.511719 2.621094 -5.589844 2.300781 -5.589844 C 2.070312 -5.589844 1.816406 -5.546875 1.53125 -5.453125 C 1.246094 -5.363281 0.949219 -5.230469 0.636719 -5.058594 L 0.636719 -6.25 C 0.945312 -6.363281 1.25 -6.449219 1.546875 -6.507812 C 1.84375 -6.566406 2.128906 -6.597656 2.398438 -6.597656 C 3.085938 -6.597656 3.625 -6.4375 4.015625 -6.117188 C 4.410156 -5.796875 4.605469 -5.363281 4.605469 -4.808594 C 4.605469 -4.554688 4.5625 -4.316406 4.476562 -4.09375 C 4.390625 -3.871094 4.246094 -3.621094 4.035156 -3.351562 C 3.882812 -3.15625 3.460938 -2.710938 2.773438 -2.023438 C 2.398438 -1.648438 2.105469 -1.351562 1.882812 -1.128906 Z "/>
</g>
<g id="glyph-0-2">
<path d="M 2.675781 -2.890625 C 2.386719 -2.890625 2.15625 -2.800781 1.980469 -2.621094 C 1.804688 -2.4375 1.714844 -2.199219 1.714844 -1.902344 C 1.714844 -1.605469 1.804688 -1.363281 1.980469 -1.179688 C 2.15625 -0.996094 2.386719 -0.90625 2.675781 -0.90625 C 2.960938 -0.90625 3.191406 -1 3.371094 -1.183594 C 3.546875 -1.371094 3.636719 -1.609375 3.636719 -1.902344 C 3.636719 -2.199219 3.550781 -2.4375 3.371094 -2.621094 C 3.195312 -2.800781 2.964844 -2.890625 2.675781 -2.890625 Z M 1.722656 -3.433594 C 1.394531 -3.546875 1.148438 -3.722656 0.976562 -3.964844 C 0.804688 -4.207031 0.71875 -4.503906 0.71875 -4.851562 C 0.71875 -5.390625 0.894531 -5.816406 1.246094 -6.128906 C 1.597656 -6.441406 2.070312 -6.597656 2.675781 -6.597656 C 3.277344 -6.597656 3.757812 -6.441406 4.105469 -6.128906 C 4.457031 -5.816406 4.632812 -5.390625 4.632812 -4.851562 C 4.632812 -4.503906 4.546875 -4.210938 4.378906 -3.96875 C 4.210938 -3.726562 3.96875 -3.550781 3.644531 -3.433594 C 4.003906 -3.324219 4.285156 -3.125 4.488281 -2.84375 C 4.691406 -2.558594 4.792969 -2.21875 4.792969 -1.824219 C 4.792969 -1.203125 4.609375 -0.71875 4.242188 -0.382812 C 3.875 -0.0429688 3.351562 0.125 2.675781 0.125 C 2 0.125 1.480469 -0.0429688 1.109375 -0.382812 C 0.742188 -0.722656 0.558594 -1.199219 0.558594 -1.824219 C 0.558594 -2.222656 0.664062 -2.5625 0.867188 -2.847656 C 1.074219 -3.132812 1.359375 -3.328125 1.722656 -3.433594 Z M 1.859375 -4.75 C 1.859375 -4.496094 1.929688 -4.292969 2.078125 -4.144531 C 2.222656 -3.996094 2.421875 -3.917969 2.675781 -3.917969 C 2.929688 -3.917969 3.128906 -3.992188 3.273438 -4.144531 C 3.421875 -4.292969 3.496094 -4.492188 3.496094 -4.75 C 3.496094 -5 3.421875 -5.199219 3.273438 -5.34375 C 3.128906 -5.492188 2.929688 -5.566406 2.675781 -5.566406 C 2.425781 -5.566406 2.226562 -5.492188 2.078125 -5.34375 C 1.929688 -5.195312 1.859375 -4.996094 1.859375 -4.75 Z "/>
</g>
</g>
</defs>
<g fill="rgb(100%, 84.313725%, 0%)" fill-opacity="1">
<use xlink:href="#glyph-0-0" x="30" y="28.251953"/>
<use xlink:href="#glyph-0-1" x="35" y="28.251953"/>
<use xlink:href="#glyph-0-2" x="40" y="28.251953"/>
</g>
</svg>
